<svg width="22" height="22" viewBox="0 0 22 22" fill="none" xmlns="http://www.w3.org/2000/svg"><path fill-rule="evenodd" clip-rule="evenodd" d="M11 19.4091C15.6442 19.4091 19.4091 15.6442 19.4091 11C19.4091 6.35579 15.6442 2.59091 11 2.59091C6.35579 2.59091 2.59091 6.35579 2.59091 11C2.59091 15.6442 6.35579 19.4091 11 19.4091ZM11 21C16.5228 21 21 16.5228 21 11C21 5.47715 16.5228 1 11 1C5.47715 1 1 5.47715 1 11C1 16.5228 5.47715 21 11 21Z" fill="#778899"></path><path d="M10.985 14.1777C10.5814 14.1777 10.2132 14.1068 9.88046 13.965C9.54773 13.8232 9.26136 13.62 9.02136 13.3555C8.78136 13.0882 8.59591 12.7664 8.465 12.39C8.33682 12.0109 8.27273 11.5841 8.27273 11.1095C8.27273 10.4823 8.38455 9.93955 8.60818 9.48136C8.83182 9.02318 9.14682 8.67 9.55318 8.42182C9.95955 8.17091 10.4368 8.04545 10.985 8.04545C11.645 8.04545 12.1768 8.19954 12.5805 8.50773C12.9841 8.81318 13.2623 9.23182 13.415 9.76364L12.6786 9.915C12.5559 9.55773 12.3541 9.27273 12.0732 9.06C11.7923 8.84727 11.4418 8.74091 11.0218 8.74091C10.5827 8.73818 10.2173 8.83636 9.92545 9.03545C9.63636 9.23182 9.41818 9.50864 9.27091 9.86591C9.12364 10.2232 9.04864 10.6377 9.04591 11.1095C9.04318 11.5786 9.11545 11.9905 9.26273 12.345C9.41 12.6995 9.62955 12.9777 9.92136 13.1795C10.2159 13.3786 10.5827 13.4795 11.0218 13.4823C11.4009 13.485 11.72 13.4127 11.9791 13.2655C12.2382 13.1182 12.4386 12.9055 12.5805 12.6273C12.7223 12.3491 12.8082 12.015 12.8382 11.625H11.5864V11.0236H13.6073C13.6155 11.0782 13.6195 11.1436 13.6195 11.22C13.6223 11.2936 13.6236 11.3441 13.6236 11.3714C13.6236 11.9086 13.5227 12.39 13.3209 12.8155C13.1218 13.2382 12.8259 13.5709 12.4332 13.8136C12.0432 14.0564 11.5605 14.1777 10.985 14.1777Z" fill="#778899"></path></svg>