<svg width="22" height="22" viewBox="0 0 22 22" fill="none" xmlns="http://www.w3.org/2000/svg">
  <g clip-path="url(#clip0_15961_631)">
    <!-- Circle with M letter (inner paths) -->
    <path fill-rule="evenodd" clip-rule="evenodd" d="M20.2214 10.9992C20.2214 16.0925 16.0925 20.2214 10.9992 20.2214C5.90593 20.2214 1.777 16.0925 1.777 10.9992C1.777 5.90593 5.90593 1.777 10.9992 1.777C16.0925 1.777 20.2214 5.90593 20.2214 10.9992ZM20.9992 10.9992C20.9992 16.5221 16.5221 20.9992 10.9992 20.9992C5.47637 20.9992 0.999219 16.5221 0.999219 10.9992C0.999219 5.47637 5.47637 0.999219 10.9992 0.999219C16.5221 0.999219 20.9992 5.47637 20.9992 10.9992ZM8.16275 7.83516V13.7261H8.85411V9.4347L10.8546 13.7261H11.2432L13.2437 9.4347V13.722H13.935V7.83516H13.2641L11.0509 12.5274L8.82548 7.83516H8.16275Z" fill="#778899"/>

    <!-- Circle outline and M letter (outer paths) -->
    <path fill-rule="evenodd" clip-rule="evenodd" d="M7.86275 14.0261V7.53516H9.01522L11.0502 11.8258L13.0739 7.53516H14.235V14.022H12.9437V10.7883L11.4344 14.0261H10.6634L9.15411 10.7883V14.0261H7.86275ZM8.85411 9.4347L10.8546 13.7261H11.2432L13.2437 9.4347V13.722H13.935V7.83516H13.2641L11.0509 12.5274L8.82548 7.83516H8.16275V13.7261H8.85411V9.4347ZM10.9992 19.9214C15.9268 19.9214 19.9214 15.9268 19.9214 10.9992C19.9214 6.07161 15.9268 2.077 10.9992 2.077C6.07161 2.077 2.077 6.07161 2.077 10.9992C2.077 15.9268 6.07161 19.9214 10.9992 19.9214ZM21.2992 10.9992C21.2992 16.6878 16.6878 21.2992 10.9992 21.2992C5.31069 21.2992 0.699219 16.6878 0.699219 10.9992C0.699219 5.31069 5.31069 0.699219 10.9992 0.699219C16.6878 0.699219 21.2992 5.31069 21.2992 10.9992ZM10.9992 20.2214C16.0925 20.2214 20.2214 16.0925 20.2214 10.9992C20.2214 5.90593 16.0925 1.777 10.9992 1.777C5.90593 1.777 1.777 5.90593 1.777 10.9992C1.777 16.0925 5.90593 20.2214 10.9992 20.2214ZM10.9992 20.9992C16.5221 20.9992 20.9992 16.5221 20.9992 10.9992C20.9992 5.47637 16.5221 0.999219 10.9992 0.999219C5.47637 0.999219 0.999219 5.47637 0.999219 10.9992C0.999219 16.5221 5.47637 20.9992 10.9992 20.9992Z" fill="#778899"/>
  </g>
  <defs>
    <clipPath id="clip0_15961_631">
      <rect width="22" height="22" fill="white"/>
    </clipPath>
  </defs>
</svg>
