<svg width="22" height="22" viewBox="0 0 22 22" fill="none" xmlns="http://www.w3.org/2000/svg">
  <!-- Outer square border -->
  <path fill-rule="evenodd" clip-rule="evenodd" d="M19 2H3V20H19V2ZM2 1V21H20V1H2Z" fill="#778899"/>

  <!-- Inner square border -->
  <path fill-rule="evenodd" clip-rule="evenodd" d="M18 3H4V19H18V3ZM3 2V20H19V2H3Z" fill="#778899"/>

  <!-- JB text - centered at x=11, y=11 -->
  <!-- J -->
  <path d="M6.5 7H7.8V13.2C7.8 13.9 7.6 14.4 7.3 14.8C7 15.2 6.5 15.4 5.8 15.4C5.2 15.4 4.7 15.2 4.4 14.9L4.9 14.2C5.1 14.4 5.4 14.5 5.7 14.5C6.2 14.5 6.5 14.1 6.5 13.4V7Z" fill="#778899"/>
  <!-- B -->
  <path d="M9.5 7H13.5C14.3 7 14.9 7.2 15.3 7.6C15.7 8 15.9 8.5 15.9 9.1C15.9 9.7 15.7 10.2 15.2 10.5C15.8 10.8 16.2 11.4 16.2 12.1C16.2 12.8 15.9 13.4 15.5 13.8C15.1 14.2 14.4 14.4 13.6 14.4H9.5V7ZM10.8 10H13.3C13.8 10 14.1 9.9 14.3 9.7C14.5 9.5 14.6 9.2 14.6 8.9C14.6 8.6 14.5 8.3 14.3 8.1C14.1 7.9 13.8 7.8 13.3 7.8H10.8V10ZM10.8 13.6H13.5C14 13.6 14.3 13.5 14.6 13.3C14.8 13.1 14.9 12.8 14.9 12.4C14.9 12 14.8 11.7 14.6 11.5C14.4 11.3 14 11.2 13.5 11.2H10.8V13.6Z" fill="#778899"/>
</svg>
