<svg width="22" height="22" viewBox="0 0 22 22" fill="none" xmlns="http://www.w3.org/2000/svg">
  <g clip-path="url(#clip0_15961_603)">
    <!-- Top circle with vertical line extending up -->
    <path fill-rule="evenodd" clip-rule="evenodd" d="M12.518 8.14993C12.518 8.97577 11.8485 9.64525 11.0226 9.64525C10.1968 9.64525 9.52731 8.97577 9.52731 8.14992C9.52731 7.41991 10.0504 6.81207 10.7423 6.68084L10.7423 1.00039L11.303 1.00039L11.303 6.68084C11.9948 6.81207 12.518 7.41991 12.518 8.14993Z" fill="#778899"/>

    <!-- Bottom circle with vertical line extending down -->
    <path fill-rule="evenodd" clip-rule="evenodd" d="M10.3683 17.0022L10.3683 21.0004L10.929 21.0004L10.929 17.0022C11.6208 16.871 12.144 16.2631 12.144 15.5331C12.144 14.7073 11.4745 14.0378 10.6486 14.0378C9.82278 14.0378 9.1533 14.7073 9.1533 15.5331C9.1533 16.2631 9.67642 16.8709 10.3683 17.0022Z" fill="#778899"/>

    <!-- Diagonal switch arm (simple) -->
    <path fill-rule="evenodd" clip-rule="evenodd" d="M8.53147 8.29496L10.9146 15.4445L10.3827 15.6218L7.9995 8.47228L8.53147 8.29496Z" fill="#778899"/>

    <!-- Complex switch arm with detailed outlines -->
    <path fill-rule="evenodd" clip-rule="evenodd" d="M7.80976 8.37741L8.62634 8.10522L10.5547 13.8904C10.5858 13.8887 10.6171 13.8878 10.6486 13.8878C11.5573 13.8878 12.294 14.6244 12.294 15.5331C12.294 16.293 11.779 16.9323 11.079 17.1215L11.079 21.1504L10.2183 21.1504L10.2183 17.1215C9.51829 16.9323 9.0033 16.293 9.0033 15.5331C9.0033 14.9611 9.29517 14.4573 9.73811 14.1625L7.80976 8.37741ZM9.83725 14.4599C9.51286 14.7055 9.3033 15.0948 9.3033 15.5331C9.3033 16.1897 9.77386 16.7368 10.3962 16.8548L10.5183 16.878L10.5183 20.8504L10.779 20.8504L10.779 16.878L10.901 16.8548C11.5234 16.7368 11.994 16.1897 11.994 15.5331C11.994 14.7918 11.3945 14.1906 10.6539 14.1878L11.1044 15.5394L10.2878 15.8115L9.83725 14.4599ZM10.3488 14.2213C10.2629 14.2409 10.1802 14.2686 10.1014 14.3037L10.4775 15.4321L10.7249 15.3496L10.3488 14.2213ZM10.2535 13.9355C10.1683 13.9565 10.0856 13.9842 10.0062 14.0179L8.18923 8.56715L8.4366 8.48469L10.2535 13.9355ZM11.0226 9.79525C10.114 9.79525 9.37732 9.05861 9.37732 8.14992C9.37732 7.39004 9.89231 6.75073 10.5923 6.56149L10.5923 0.850391L11.453 0.850391L11.453 6.56149C12.153 6.75073 12.668 7.39004 12.668 8.14993C12.668 9.05861 11.9313 9.79525 11.0226 9.79525ZM9.67732 8.14992C9.67732 8.89293 10.2796 9.49525 11.0226 9.49525C11.7656 9.49525 12.368 8.89293 12.368 8.14993C12.368 7.4933 11.8974 6.94627 11.2751 6.82821L11.153 6.80506L11.153 1.15039L10.8923 1.15039L10.8923 6.80506L10.7702 6.82821C10.1479 6.94627 9.67732 7.4933 9.67732 8.14992Z" fill="#778899"/>
  </g>
  <defs>
    <clipPath id="clip0_15961_603">
      <rect width="22" height="22" fill="white" transform="translate(22 22) rotate(-180)"/>
    </clipPath>
  </defs>
</svg>
