<svg width="22" height="22" viewBox="0 0 22 22" fill="none" xmlns="http://www.w3.org/2000/svg"><path fill-rule="evenodd" clip-rule="evenodd" d="M10.3903 1.30078H10.6888V6.0769H12.7784V16.5247H10.6888V21.3008H10.3903V16.5247H8.30078V6.0769H10.3903V1.30078ZM8.59929 6.37541H12.4799V8.16645H8.59929V6.37541ZM8.59929 8.46496V14.1366H12.4799V8.46496H8.59929ZM12.4799 14.4351H8.59929V16.2262H12.4799V14.4351Z" fill="#778899"></path><path fill-rule="evenodd" clip-rule="evenodd" d="M10.9881 1V5.77612H13.0776V16.8239H10.9881V21.6H10.0896V16.8239H8V5.77612H10.0896V1H10.9881ZM10.3896 21.3H10.6881V16.5239H12.7776V6.07612H10.6881V1.3H10.3896V6.07612H8.3V16.5239H10.3896V21.3ZM12.4791 16.2254V14.4343H8.59851V16.2254H12.4791ZM12.1791 15.9254H8.89851V14.7343H12.1791V15.9254ZM12.4791 14.1358V8.46418H8.59851V14.1358H12.4791ZM12.1791 13.8358H8.89851V8.76418H12.1791V13.8358ZM12.4791 8.16567V6.37463H8.59851V8.16567H12.4791ZM12.1791 7.86567H8.89851V6.67463H12.1791V7.86567Z" fill="#778899"></path></svg>