<svg width="22" height="22" viewBox="0 0 22 22" fill="none" xmlns="http://www.w3.org/2000/svg">
  <!-- Circle outline with three dots inside (generic electrical component) -->
  <path fill-rule="evenodd" clip-rule="evenodd" d="M19.8136 11C19.8136 15.8676 15.8676 19.8136 11 19.8136C6.13241 19.8136 2.18644 15.8676 2.18644 11C2.18644 6.13241 6.13241 2.18644 11 2.18644C15.8676 2.18644 19.8136 6.13241 19.8136 11ZM21 11C21 16.5228 16.5228 21 11 21C5.47715 21 1 16.5228 1 11C1 5.47715 5.47715 1 11 1C16.5228 1 21 5.47715 21 11ZM7.77959 11C7.77959 11.7489 7.17252 12.356 6.42366 12.356C5.67479 12.356 5.06772 11.7489 5.06772 11C5.06772 10.2512 5.67479 9.64411 6.42366 9.64411C7.17252 9.64411 7.77959 10.2512 7.77959 11ZM8.45755 11C8.45755 12.1233 7.54695 13.0339 6.42366 13.0339C5.30036 13.0339 4.38976 12.1233 4.38976 11C4.38976 9.87675 5.30036 8.96615 6.42366 8.96615C7.54695 8.96615 8.45755 9.87675 8.45755 11ZM11.1693 12.356C11.9182 12.356 12.5252 11.7489 12.5252 11C12.5252 10.2512 11.9182 9.64411 11.1693 9.64411C10.4205 9.64411 9.81338 10.2512 9.81338 11C9.81338 11.7489 10.4205 12.356 11.1693 12.356ZM11.1693 13.0339C12.2926 13.0339 13.2032 12.1233 13.2032 11C13.2032 9.87675 12.2926 8.96615 11.1693 8.96615C10.046 8.96615 9.13542 9.87675 9.13542 11C9.13542 12.1233 10.046 13.0339 11.1693 13.0339ZM17.2713 11C17.2713 11.7489 16.6643 12.356 15.9154 12.356C15.1665 12.356 14.5595 11.7489 14.5595 11C14.5595 10.2512 15.1665 9.64411 15.9154 9.64411C16.6643 9.64411 17.2713 10.2512 17.2713 11ZM17.9493 11C17.9493 12.1233 17.0387 13.0339 15.9154 13.0339C14.7921 13.0339 13.8815 12.1233 13.8815 11C13.8815 9.87675 14.7921 8.96615 15.9154 8.96615C17.0387 8.96615 17.9493 9.87675 17.9493 11Z" fill="#778899"/>
</svg>
