<svg width="22" height="22" viewBox="0 0 22 22" fill="none" xmlns="http://www.w3.org/2000/svg">
  <!-- Top vertical line (terminal) -->
  <path fill-rule="evenodd" clip-rule="evenodd" d="M8 1.64935C8 1.29072 8.29072 1 8.64935 1C9.00798 1 9.2987 1.29072 9.2987 1.64935V6.32468C9.2987 6.6833 9.00798 6.97403 8.64935 6.97403C8.29072 6.97403 8 6.6833 8 6.32468V1.64935ZM8 15.6753C8 15.3167 8.29072 15.026 8.64935 15.026C9.00798 15.026 9.2987 15.3167 9.2987 15.6753V20.3506C9.2987 20.7093 9.00798 21 8.64935 21C8.29072 21 8 20.7093 8 20.3506V15.6753ZM10.2077 6.84435C11.3332 7.0608 13.4544 8.22097 12.9349 11.1301C12.9349 13.1173 12.4154 15.0262 10.0778 15.2859C9.4544 15.9093 10.1644 16.2383 10.5973 16.3249C11.4631 16.2383 13.3506 15.3379 13.974 12.4288V9.83136C13.974 8.96556 13.3506 6.92227 10.8571 5.67552C9.4026 5.57162 9.81809 6.41145 10.2077 6.84435Z" fill="#778899"/>
</svg>
