<svg width="22" height="22" viewBox="0 0 22 22" fill="none" xmlns="http://www.w3.org/2000/svg">
  <!-- Outer rectangle border -->
  <path fill-rule="evenodd" clip-rule="evenodd" d="M20.8758 5.28089H1.7225V17.3926H20.8758V5.28089ZM1.44083 4.99922V17.6742H21.1575V4.99922H1.44083Z" fill="#778899"/>

  <!-- Left horizontal line (input) -->
  <path fill-rule="evenodd" clip-rule="evenodd" d="M5.66584 7.18214H1.3V6.90047H5.66584V7.18214Z" fill="#778899"/>

  <!-- Right horizontal line (input) -->
  <path fill-rule="evenodd" clip-rule="evenodd" d="M16.1557 6.90047L21.2961 6.83005L21.3 7.11169L16.1596 7.18211L16.1557 6.90047Z" fill="#778899"/>

  <!-- Diagonal switch arm -->
  <path fill-rule="evenodd" clip-rule="evenodd" d="M10.2638 14.0862L6.46132 7.88949L6.7014 7.74217L10.5039 13.9388L10.2638 14.0862Z" fill="#778899"/>

  <!-- Output vertical line -->
  <path fill-rule="evenodd" clip-rule="evenodd" d="M10.3133 17.8151V15.7026H10.595V17.8151H10.3133Z" fill="#778899"/>

  <!-- Left input circle -->
  <path fill-rule="evenodd" clip-rule="evenodd" d="M6.51084 7.67505C6.82196 7.67505 7.07417 7.42284 7.07417 7.11172C7.07417 6.8006 6.82196 6.54839 6.51084 6.54839C6.19972 6.54839 5.9475 6.8006 5.9475 7.11172C5.9475 7.42284 6.19972 7.67505 6.51084 7.67505ZM6.51084 7.95672C6.97752 7.95672 7.35584 7.5784 7.35584 7.11172C7.35584 6.64504 6.97752 6.26672 6.51084 6.26672C6.04415 6.26672 5.66584 6.64504 5.66584 7.11172C5.66584 7.5784 6.04415 7.95672 6.51084 7.95672Z" fill="#778899"/>

  <!-- Output circle (bottom center) -->
  <path fill-rule="evenodd" clip-rule="evenodd" d="M10.4542 15.4209C10.7653 15.4209 11.0175 15.1687 11.0175 14.8576C11.0175 14.5464 10.7653 14.2942 10.4542 14.2942C10.1431 14.2942 9.89084 14.5464 9.89084 14.8576C9.89084 15.1687 10.1431 15.4209 10.4542 15.4209ZM10.4542 15.7026C10.9209 15.7026 11.2992 15.3242 11.2992 14.8576C11.2992 14.3909 10.9209 14.0126 10.4542 14.0126C9.98749 14.0126 9.60917 14.3909 9.60917 14.8576C9.60917 15.3242 9.98749 15.7026 10.4542 15.7026Z" fill="#778899"/>

  <!-- Right input circle -->
  <path fill-rule="evenodd" clip-rule="evenodd" d="M15.3833 7.53422C15.6945 7.53422 15.9467 7.28201 15.9467 6.97089C15.9467 6.65977 15.6945 6.40755 15.3833 6.40755C15.0722 6.40755 14.82 6.65977 14.82 6.97089C14.82 7.28201 15.0722 7.53422 15.3833 7.53422ZM15.3833 7.81589C15.85 7.81589 16.2283 7.43757 16.2283 6.97089C16.2283 6.50421 15.85 6.12589 15.3833 6.12589C14.9167 6.12589 14.5383 6.50421 14.5383 6.97089C14.5383 7.43757 14.9167 7.81589 15.3833 7.81589Z" fill="#778899"/>

  <!-- Main detailed outline with all elements -->
  <path fill-rule="evenodd" clip-rule="evenodd" d="M21.1575 4.99922H1.44083V6.90047L1.3 6.90047V7.18214L1.44083 7.18214V17.6742H10.3133V17.8151H10.595V17.6742H21.1575V7.11364L21.3 7.11169L21.2961 6.83005L21.1575 6.83195V4.99922ZM20.8758 5.28089H1.7225V6.90047L5.66584 6.90047V7.11172V7.18214L1.7225 7.18214V17.3926H10.3133V15.7026H10.4542H10.595V17.3926H20.8758V7.1175L16.2019 7.18153C16.2003 7.18769 16.1986 7.19383 16.1969 7.19993C16.1871 7.23475 16.1752 7.26865 16.1612 7.30149C16.1334 7.36681 16.0976 7.42791 16.0551 7.48357C15.9007 7.68558 15.6572 7.81589 15.3833 7.81589C14.9167 7.81589 14.5383 7.43757 14.5383 6.97089C14.5383 6.50421 14.9167 6.12589 15.3833 6.12589C15.7172 6.12589 16.0059 6.31952 16.1431 6.60061C16.1461 6.60674 16.149 6.61291 16.1519 6.61912C16.1891 6.70038 16.2139 6.78856 16.2236 6.8812C16.2243 6.88729 16.2249 6.89339 16.2254 6.89952L20.8758 6.83581V5.28089ZM20.5758 5.58089V6.53989L16.4656 6.5962C16.3104 6.14784 15.8845 5.82589 15.3833 5.82589C14.751 5.82589 14.2383 6.33852 14.2383 6.97089C14.2383 7.60325 14.751 8.11589 15.3833 8.11589C15.8333 8.11589 16.2227 7.8563 16.4099 7.47871L20.5758 7.42164V17.0926H10.895V15.9146C11.3085 15.742 11.5992 15.3337 11.5992 14.8576C11.5992 14.3235 11.2335 13.8748 10.7389 13.7482L7.21877 8.0117C7.48494 7.80204 7.65584 7.47684 7.65584 7.11172C7.65584 6.47935 7.1432 5.96672 6.51084 5.96672C6.06221 5.96672 5.67384 6.22473 5.48603 6.60047H2.0225V5.58089H20.5758ZM5.83799 6.60047C5.77097 6.68853 5.72085 6.79014 5.69246 6.90047C5.67508 6.96799 5.66584 7.03877 5.66584 7.11172C5.66584 7.13543 5.66681 7.15892 5.66873 7.18214C5.67755 7.28901 5.70625 7.39025 5.75114 7.48214C5.82322 7.6297 5.93704 7.75315 6.07722 7.83713C6.16579 7.89019 6.26488 7.92748 6.37063 7.94514C6.40661 7.95115 6.44337 7.95489 6.48075 7.95619C6.488 7.95645 6.49527 7.95661 6.50256 7.95668L10.2361 14.041C10.2299 14.0426 10.2238 14.0443 10.2177 14.0461C10.1254 14.073 10.0395 14.1152 9.96316 14.1698C9.74885 14.323 9.60917 14.574 9.60917 14.8576C9.60917 15.1627 9.77091 15.4301 10.0133 15.5786C10.1036 15.6339 10.2049 15.6727 10.3133 15.6909C10.3591 15.6986 10.4062 15.7026 10.4542 15.7026C10.5022 15.7026 10.5492 15.6986 10.595 15.6909C10.7034 15.6727 10.8048 15.6339 10.895 15.5786C11.1374 15.4301 11.2992 15.1627 11.2992 14.8576C11.2992 14.5224 11.104 14.2328 10.8211 14.0962C10.7382 14.0562 10.6478 14.0293 10.5526 14.0182C10.5203 14.0145 10.4875 14.0126 10.4542 14.0126C10.4286 14.0126 10.4033 14.0137 10.3783 14.0159L10.5039 13.9388L6.80155 7.90538C6.8074 7.90324 6.81321 7.90103 6.819 7.89877C6.90777 7.86398 6.98921 7.81462 7.0604 7.75362C7.24124 7.59864 7.35584 7.36856 7.35584 7.11172C7.35584 6.64504 6.97752 6.26672 6.51084 6.26672C6.2363 6.26672 5.99233 6.39765 5.83799 6.60047ZM5.96584 6.96863C5.95387 7.01432 5.9475 7.06228 5.9475 7.11172C5.9475 7.13557 5.94898 7.15907 5.95186 7.18214C5.95495 7.2069 5.95964 7.23116 5.96584 7.25481C6.01132 7.42852 6.13765 7.56951 6.3022 7.63515C6.30354 7.63569 6.30489 7.63622 6.30624 7.63675C6.36966 7.66148 6.43866 7.67505 6.51084 7.67505C6.55873 7.67505 6.60524 7.66907 6.64964 7.65782C6.74995 7.63241 6.83954 7.58007 6.91027 7.50896C7.01157 7.4071 7.07417 7.26672 7.07417 7.11172C7.07417 6.8006 6.82196 6.54839 6.51084 6.54839C6.24916 6.54839 6.02915 6.72681 5.96584 6.96863ZM10.4959 14.2957C10.4821 14.2947 10.4682 14.2942 10.4542 14.2942C10.4337 14.2942 10.4134 14.2953 10.3935 14.2975C10.2879 14.3088 10.191 14.3493 10.111 14.4108C9.97713 14.5137 9.89084 14.6756 9.89084 14.8576C9.89084 15.1192 10.0693 15.3392 10.3111 15.4026C10.3118 15.4028 10.3126 15.4029 10.3133 15.4031C10.3584 15.4147 10.4055 15.4209 10.4542 15.4209C10.5028 15.4209 10.55 15.4147 10.595 15.4031C10.5958 15.4029 10.5965 15.4028 10.5973 15.4026C10.8391 15.3392 11.0175 15.1192 11.0175 14.8576C11.0175 14.5605 10.7875 14.3171 10.4959 14.2957ZM9.80595 13.9136C9.5059 14.12 9.30917 14.4658 9.30917 14.8576C9.30917 15.3337 9.5998 15.742 10.0133 15.9146V17.0926H2.0225V7.48214H5.42708C5.56172 7.87618 5.90522 8.17341 6.32554 8.2418L9.80595 13.9136ZM15.8524 6.65878C15.7514 6.50733 15.579 6.40755 15.3833 6.40755C15.0722 6.40755 14.82 6.65977 14.82 6.97089C14.82 7.28201 15.0722 7.53422 15.3833 7.53422C15.5845 7.53422 15.7611 7.42874 15.8608 7.27005C15.8775 7.24333 15.8921 7.2151 15.9043 7.18561C15.9316 7.11943 15.9467 7.04692 15.9467 6.97089C15.9467 6.94804 15.9453 6.92552 15.9427 6.90339C15.932 6.81368 15.9002 6.73044 15.8524 6.65878ZM10.0133 17.9742V18.1151H10.895V17.9742H21.4575V7.40956L21.6041 7.40756L21.592 6.52597L21.4575 6.52781V4.69922H1.14083V6.60047H1V7.48214H1.14083V17.9742H10.0133ZM6.51084 7.37505C6.65627 7.37505 6.77417 7.25715 6.77417 7.11172C6.77417 6.96628 6.65627 6.84839 6.51084 6.84839C6.3654 6.84839 6.2475 6.96628 6.2475 7.11172C6.2475 7.25715 6.3654 7.37505 6.51084 7.37505ZM10.4542 15.1209C10.5996 15.1209 10.7175 15.003 10.7175 14.8576C10.7175 14.7121 10.5996 14.5942 10.4542 14.5942C10.3087 14.5942 10.1908 14.7121 10.1908 14.8576C10.1908 15.003 10.3087 15.1209 10.4542 15.1209ZM15.3833 7.23422C15.5288 7.23422 15.6467 7.11632 15.6467 6.97089C15.6467 6.82545 15.5288 6.70755 15.3833 6.70755C15.2379 6.70755 15.12 6.82545 15.12 6.97089C15.12 7.11632 15.2379 7.23422 15.3833 7.23422Z" fill="#778899"/>
</svg>
