<svg width="22" height="22" viewBox="0 0 22 22" fill="none" xmlns="http://www.w3.org/2000/svg">
  <!-- Top row of coils (4 coils) -->
  <path fill-rule="evenodd" clip-rule="evenodd" d="M7.45039 7.41364V8.36666C7.45039 8.83631 7.34335 9.33393 7.02017 9.7139C6.39735 10.4462 5.68906 10.6432 5.04292 10.5324C4.40802 10.4236 3.85188 10.0214 3.5048 9.58887C3.2581 9.28143 3.2 8.88902 3.2 8.53375V7.48821H3.49827V8.53375C3.49827 8.86518 3.55437 9.17406 3.73744 9.4022C4.0498 9.79147 4.54569 10.1446 5.09331 10.2385C5.62968 10.3304 6.2344 10.1774 6.79297 9.52065C7.05314 9.21476 7.15211 8.7974 7.15211 8.36666V7.41364H7.45039Z" fill="#778899"/>
  <path fill-rule="evenodd" clip-rule="evenodd" d="M11.4771 7.41364V8.36666C11.4771 8.83631 11.37 9.33393 11.0469 9.7139C10.424 10.4462 9.71574 10.6432 9.0696 10.5324C8.4347 10.4236 7.87856 10.0214 7.53148 9.58887C7.28478 9.28143 7.22668 8.88902 7.22668 8.53375V7.48821H7.52495V8.53375C7.52495 8.86518 7.58105 9.17406 7.76412 9.4022C8.07648 9.79147 8.57237 10.1446 9.11999 10.2385C9.65637 10.3304 10.2611 10.1774 10.8196 9.52065C11.0798 9.21476 11.1788 8.7974 11.1788 8.36666V7.41364H11.4771Z" fill="#778899"/>
  <path fill-rule="evenodd" clip-rule="evenodd" d="M15.5037 7.41364V8.36666C15.5037 8.83631 15.3967 9.33393 15.0735 9.7139C14.4507 10.4462 13.7424 10.6432 13.0963 10.5324C12.4614 10.4236 11.9052 10.0214 11.5582 9.58887C11.3115 9.28143 11.2534 8.88902 11.2534 8.53375V7.48821H11.5516V8.53375C11.5516 8.86518 11.6077 9.17406 11.7908 9.4022C12.1032 9.79147 12.5991 10.1446 13.1467 10.2385C13.683 10.3304 14.2878 10.1774 14.8463 9.52065C15.1065 9.21476 15.2055 8.7974 15.2055 8.36666V7.41364H15.5037Z" fill="#778899"/>
  <path fill-rule="evenodd" clip-rule="evenodd" d="M19.5304 7.41364V8.36666C19.5304 8.83631 19.4234 9.33393 19.1002 9.7139C18.4774 10.4462 17.7691 10.6432 17.123 10.5324C16.4881 10.4236 15.9319 10.0214 15.5848 9.58887C15.3381 9.28143 15.28 8.88902 15.28 8.53375V7.48821H15.5783V8.53375C15.5783 8.86518 15.6344 9.17406 15.8175 9.4022C16.1298 9.79147 16.6257 10.1446 17.1734 10.2385C17.7097 10.3304 18.3144 10.1774 18.873 9.52065C19.1332 9.21476 19.2322 8.7974 19.2322 8.36666V7.41364H19.5304Z" fill="#778899"/>

  <!-- Top vertical line -->
  <path fill-rule="evenodd" clip-rule="evenodd" d="M11.4771 1.00078V8.97958H11.1788V1.00078H11.4771Z" fill="#778899"/>

  <!-- Bottom row of coils (4 coils - inverted) -->
  <path fill-rule="evenodd" clip-rule="evenodd" d="M15.28 14.5879L15.28 13.6349C15.28 13.1653 15.3871 12.6676 15.7103 12.2877C16.3331 11.5554 17.0414 11.3584 17.6875 11.4691C18.3224 11.5779 18.8786 11.9802 19.2256 12.4127C19.4723 12.7201 19.5304 13.1125 19.5304 13.4678V14.5133H19.2322V13.4678C19.2322 13.1364 19.1761 12.8275 18.993 12.5994C18.6806 12.2101 18.1847 11.857 17.6371 11.7631C17.1007 11.6712 16.496 11.8242 15.9375 12.4809C15.6773 12.7868 15.5783 13.2042 15.5783 13.6349L15.5783 14.5879H15.28Z" fill="#778899"/>
  <path fill-rule="evenodd" clip-rule="evenodd" d="M11.2534 14.5879V13.6349C11.2534 13.1653 11.3604 12.6676 11.6836 12.2877C12.3064 11.5554 13.0147 11.3584 13.6608 11.4691C14.2957 11.5779 14.8519 11.9802 15.1989 12.4127C15.4457 12.7201 15.5037 13.1125 15.5037 13.4678L15.5037 14.5133H15.2055L15.2055 13.4678C15.2055 13.1364 15.1494 12.8275 14.9663 12.5994C14.6539 12.2101 14.1581 11.857 13.6104 11.7631C13.0741 11.6712 12.4693 11.8242 11.9108 12.4809C11.6506 12.7868 11.5516 13.2042 11.5516 13.6349V14.5879H11.2534Z" fill="#778899"/>
  <path fill-rule="evenodd" clip-rule="evenodd" d="M7.22668 14.5879V13.6349C7.22668 13.1653 7.33372 12.6676 7.6569 12.2877C8.27972 11.5554 8.98801 11.3584 9.63415 11.4691C10.269 11.5779 10.8252 11.9802 11.1723 12.4127C11.419 12.7201 11.4771 13.1125 11.4771 13.4678V14.5133H11.1788V13.4678C11.1788 13.1364 11.1227 12.8275 10.9396 12.5994C10.6273 12.2101 10.1314 11.857 9.58376 11.7631C9.04738 11.6712 8.44267 11.8242 7.8841 12.4809C7.62393 12.7868 7.52495 13.2042 7.52495 13.6349V14.5879H7.22668Z" fill="#778899"/>
  <path fill-rule="evenodd" clip-rule="evenodd" d="M3.2 14.5879L3.2 13.6349C3.2 13.1653 3.30704 12.6676 3.63022 12.2877C4.25304 11.5554 4.96133 11.3584 5.60747 11.4691C6.24237 11.5779 6.79851 11.9802 7.14559 12.4127C7.39229 12.7201 7.45039 13.1125 7.45039 13.4678V14.5133H7.15211V13.4678C7.15211 13.1364 7.09602 12.8275 6.91295 12.5994C6.60059 12.2101 6.10469 11.857 5.55708 11.7631C5.0207 11.6712 4.41599 11.8242 3.85742 12.4809C3.59725 12.7868 3.49827 13.2042 3.49827 13.6349L3.49827 14.5879H3.2Z" fill="#778899"/>

  <!-- Bottom vertical line -->
  <path fill-rule="evenodd" clip-rule="evenodd" d="M11.2534 21.0008L11.2534 13.022H11.5516V21.0008H11.2534Z" fill="#778899"/>

  <!-- Main outline with all coils connected -->
  <path fill-rule="evenodd" clip-rule="evenodd" d="M10.9788 0.800781H11.6771V7.28821H11.7516V8.53375C11.7516 8.84917 11.8064 9.10205 11.9468 9.27703C12.2358 9.63726 12.6913 9.95751 13.1805 10.0413C13.6433 10.1207 14.1785 9.99711 14.694 9.39107C14.9119 9.13482 15.0055 8.77125 15.0055 8.36666V7.21364H15.7037V7.28821H15.7783V8.53375C15.7783 8.84917 15.8331 9.10205 15.9735 9.27703C16.2625 9.63726 16.718 9.95751 17.2071 10.0413C17.67 10.1207 18.2052 9.99711 18.7207 9.39107C18.9386 9.13482 19.0322 8.77125 19.0322 8.36666V7.21364H19.7304V8.36666C19.7304 8.86235 19.618 9.41382 19.2526 9.84347C18.5867 10.6264 17.8089 10.8529 17.0892 10.7296C16.3957 10.6107 15.7992 10.1756 15.4289 9.71404C15.4097 9.6902 15.3916 9.66597 15.3744 9.64141C15.3303 9.71113 15.281 9.77868 15.2259 9.84347C14.56 10.6264 13.7823 10.8529 13.0625 10.7296C12.369 10.6107 11.7725 10.1756 11.4022 9.71404C11.383 9.6902 11.3649 9.66597 11.3477 9.64141C11.3037 9.71112 11.2543 9.77868 11.1992 9.84347C10.5333 10.6264 9.75558 10.8529 9.03582 10.7296C8.34236 10.6107 7.74583 10.1756 7.37549 9.71404C7.35636 9.6902 7.33823 9.66597 7.32106 9.64141C7.27698 9.71113 7.22762 9.77868 7.17252 9.84347C6.50663 10.6264 5.7289 10.8529 5.00914 10.7296C4.31568 10.6107 3.71915 10.1756 3.34881 9.71404C3.05943 9.35342 3 8.905 3 8.53375V7.28821H3.69827V8.53375C3.69827 8.84917 3.75302 9.10205 3.89342 9.27703C4.18249 9.63726 4.63798 9.95751 5.12709 10.0413C5.58991 10.1207 6.12516 9.99711 6.64062 9.39107C6.85857 9.13482 6.95211 8.77125 6.95211 8.36666V7.21364H7.65039V7.28821H7.72495V8.53375C7.72495 8.84917 7.7797 9.10205 7.9201 9.27703C8.20917 9.63726 8.66466 9.95751 9.15377 10.0413C9.61659 10.1207 10.1518 9.99711 10.6673 9.39107C10.8853 9.13482 10.9788 8.77125 10.9788 8.36666V0.800781ZM3.47787 12.1581C4.14376 11.3752 4.92148 11.1486 5.64125 11.272C6.33471 11.3908 6.93123 11.826 7.30157 12.2875C7.32071 12.3114 7.33884 12.3356 7.35601 12.3602C7.40009 12.2904 7.44944 12.2229 7.50455 12.1581C8.17044 11.3752 8.94816 11.1486 9.66793 11.272C10.3614 11.3908 10.9579 11.826 11.3283 12.2875C11.3474 12.3114 11.3655 12.3356 11.3827 12.3602C11.4268 12.2904 11.4761 12.2229 11.5312 12.1581C12.1971 11.3752 12.9748 11.1486 13.6946 11.272C14.3881 11.3908 14.9846 11.826 15.3549 12.2875C15.3741 12.3114 15.3922 12.3356 15.4094 12.3602C15.4535 12.2904 15.5028 12.2229 15.5579 12.1581C16.2238 11.3752 17.0015 11.1486 17.7213 11.272C18.4148 11.3908 19.0113 11.826 19.3816 12.2875C19.671 12.6481 19.7304 13.0966 19.7304 13.4678L19.7304 14.7134H19.0322L19.0322 13.4678C19.0322 13.1524 18.9774 12.8995 18.837 12.7245C18.5479 12.3643 18.0925 12.0441 17.6033 11.9602C17.1405 11.8809 16.6053 12.0045 16.0898 12.6105C15.8719 12.8667 15.7783 13.2303 15.7783 13.6349L15.7783 14.7879H15.08V14.7134H15.0055L15.0055 13.4678C15.0055 13.1524 14.9507 12.8995 14.8103 12.7245C14.5213 12.3643 14.0658 12.0441 13.5767 11.9602C13.1138 11.8809 12.5786 12.0045 12.0631 12.6105C11.8452 12.8667 11.7516 13.2303 11.7516 13.6349V21.2008H11.0534L11.0534 14.7133H10.9788V13.4678C10.9788 13.1524 10.9241 12.8995 10.7836 12.7245C10.4946 12.3643 10.0391 12.0441 9.54998 11.9602C9.08716 11.8809 8.55191 12.0045 8.03645 12.6105C7.8185 12.8667 7.72495 13.2303 7.72495 13.6349V14.7879H7.02668V14.7133H6.95211V13.4678C6.95211 13.1524 6.89737 12.8995 6.75696 12.7245C6.4679 12.3643 6.01241 12.0441 5.5233 11.9602C5.06048 11.8809 4.52522 12.0045 4.00977 12.6105C3.79181 12.8667 3.69827 13.2303 3.69827 13.6349L3.69827 14.7879H3L3 13.6349C3 13.1392 3.11243 12.5877 3.47787 12.1581Z" fill="#778899"/>
</svg>
