<svg width="22" height="22" viewBox="0 0 22 22" fill="none" xmlns="http://www.w3.org/2000/svg"><path fill-rule="evenodd" clip-rule="evenodd" d="M15.1312 1L15.1475 1.00112C17.0309 1.13101 18.15 1.81478 18.5075 2.20485L18.5903 2.29516V19.3066L18.5809 19.3442C18.4951 19.6874 18.2731 19.9515 18.0072 20.1506C17.7425 20.3488 17.418 20.4954 17.0888 20.6042C16.4305 20.8218 15.6939 20.9075 15.2135 20.9212L15.209 20.9213H6.38577C4.53148 20.9213 3.41457 20.0937 3.06097 19.6115L3 19.5284V2.57515C3 2.23832 3.24062 2.0022 3.46756 1.85096C3.70653 1.69171 4.01982 1.56491 4.34272 1.46362C4.99283 1.2597 5.76312 1.13463 6.27406 1.08084L6.2905 1.07911H6.30704C8.48748 1.07911 13.2948 1.06332 15.1149 1.00056L15.1312 1ZM6.32372 1.70902C5.83749 1.76115 5.12122 1.8796 4.53125 2.06466C4.2308 2.15891 3.98307 2.26439 3.81687 2.37515C3.63864 2.49392 3.62991 2.56553 3.62991 2.57515V19.3134C3.93267 19.6505 4.83609 20.2914 6.38577 20.2914H15.2C15.6383 20.2785 16.3085 20.1987 16.8911 20.0062C17.1832 19.9096 17.4385 19.7895 17.6296 19.6464C17.8064 19.514 17.9139 19.3733 17.9604 19.2248V2.55186C17.6361 2.27451 16.7118 1.74355 15.1202 1.63066C13.2793 1.69325 8.50149 1.70894 6.32372 1.70902Z" fill="#778899"></path><path fill-rule="evenodd" clip-rule="evenodd" d="M6.14956 1.00031H15.4408V21H6.14956V1.00031ZM6.77947 1.63022V3.75617H14.8108V1.63022H6.77947ZM14.8108 4.38608H6.77947V10.134H14.8108V4.38608ZM14.8108 10.7639H6.77947V20.3701H14.8108V10.7639Z" fill="#778899"></path><path fill-rule="evenodd" clip-rule="evenodd" d="M12.7636 12.6537H8.82668V12.0238H12.7636V12.6537Z" fill="#778899"></path><path fill-rule="evenodd" clip-rule="evenodd" d="M12.7636 13.5985H8.82668V12.9686H12.7636V13.5985Z" fill="#778899"></path><path fill-rule="evenodd" clip-rule="evenodd" d="M12.7636 14.5434H8.82668V13.9135H12.7636V14.5434Z" fill="#778899"></path><path fill-rule="evenodd" clip-rule="evenodd" d="M8.6692 16.7481C8.93012 16.7481 9.14164 16.5366 9.14164 16.2757C9.14164 16.0147 8.93012 15.8032 8.6692 15.8032C8.40829 15.8032 8.19677 16.0147 8.19677 16.2757C8.19677 16.5366 8.40829 16.7481 8.6692 16.7481ZM8.6692 17.2205C9.19104 17.2205 9.61407 16.7975 9.61407 16.2757C9.61407 15.7538 9.19104 15.3308 8.6692 15.3308C8.14737 15.3308 7.72434 15.7538 7.72434 16.2757C7.72434 16.7975 8.14737 17.2205 8.6692 17.2205Z" fill="#778899"></path><path fill-rule="evenodd" clip-rule="evenodd" d="M10.8739 8.71672C11.6566 8.71672 12.2912 8.08218 12.2912 7.29942C12.2912 6.51667 11.6566 5.88212 10.8739 5.88212C10.0911 5.88212 9.45659 6.51667 9.45659 7.29942C9.45659 8.08218 10.0911 8.71672 10.8739 8.71672ZM10.8739 9.18916C11.9176 9.18916 12.7636 8.3431 12.7636 7.29942C12.7636 6.25575 11.9176 5.40969 10.8739 5.40969C9.83022 5.40969 8.98416 6.25575 8.98416 7.29942C8.98416 8.3431 9.83022 9.18916 10.8739 9.18916Z" fill="#778899"></path><path fill-rule="evenodd" clip-rule="evenodd" d="M10.8739 16.7481C11.1348 16.7481 11.3463 16.5366 11.3463 16.2757C11.3463 16.0147 11.1348 15.8032 10.8739 15.8032C10.613 15.8032 10.4015 16.0147 10.4015 16.2757C10.4015 16.5366 10.613 16.7481 10.8739 16.7481ZM10.8739 17.2205C11.3957 17.2205 11.8188 16.7975 11.8188 16.2757C11.8188 15.7538 11.3957 15.3308 10.8739 15.3308C10.3521 15.3308 9.92903 15.7538 9.92903 16.2757C9.92903 16.7975 10.3521 17.2205 10.8739 17.2205Z" fill="#778899"></path><path fill-rule="evenodd" clip-rule="evenodd" d="M13.0786 16.7481C13.3395 16.7481 13.551 16.5366 13.551 16.2757C13.551 16.0147 13.3395 15.8032 13.0786 15.8032C12.8177 15.8032 12.6062 16.0147 12.6062 16.2757C12.6062 16.5366 12.8177 16.7481 13.0786 16.7481ZM13.0786 17.2205C13.6004 17.2205 14.0235 16.7975 14.0235 16.2757C14.0235 15.7538 13.6004 15.3308 13.0786 15.3308C12.5567 15.3308 12.1337 15.7538 12.1337 16.2757C12.1337 16.7975 12.5567 17.2205 13.0786 17.2205Z" fill="#778899"></path><path d="M12.3042 19.6158C12.1918 19.6158 12.0904 19.5967 12 19.5584C11.9103 19.5202 11.8361 19.4658 11.7773 19.3953C11.7192 19.324 11.6814 19.2399 11.6637 19.1429L11.8666 19.1109C11.8923 19.2108 11.9456 19.2891 12.0264 19.3457C12.108 19.4015 12.2039 19.4295 12.3141 19.4295C12.3854 19.4295 12.4497 19.4184 12.507 19.3964C12.5651 19.3736 12.611 19.3413 12.6448 19.2994C12.6786 19.2575 12.6955 19.2079 12.6955 19.1506C12.6955 19.1153 12.6893 19.0852 12.6768 19.0602C12.665 19.0345 12.6485 19.0128 12.6272 18.9951C12.6066 18.9768 12.5831 18.9613 12.5566 18.9488C12.5302 18.9363 12.5026 18.9261 12.474 18.918L12.0694 18.7978C12.0253 18.7846 11.9827 18.7681 11.9415 18.7482C11.9004 18.7276 11.8636 18.7023 11.8313 18.6722C11.799 18.6413 11.7732 18.6045 11.7541 18.5619C11.735 18.5186 11.7255 18.4675 11.7255 18.4087C11.7255 18.3146 11.7497 18.2345 11.7982 18.1684C11.8475 18.1015 11.914 18.0504 11.9978 18.0152C12.0815 17.9799 12.176 17.9626 12.2811 17.9633C12.3876 17.9641 12.4828 17.9832 12.5666 18.0207C12.6511 18.0574 12.7209 18.1103 12.776 18.1794C12.8319 18.2485 12.8693 18.3312 12.8885 18.4274L12.6801 18.4638C12.6691 18.3991 12.6445 18.3437 12.6063 18.2974C12.5688 18.2503 12.5217 18.2143 12.4651 18.1893C12.4086 18.1636 12.3465 18.1504 12.2789 18.1496C12.2142 18.1489 12.1558 18.1592 12.1036 18.1805C12.0514 18.2018 12.0099 18.2316 11.979 18.2698C11.9481 18.3073 11.9327 18.3506 11.9327 18.3999C11.9327 18.4484 11.9467 18.4877 11.9746 18.5178C12.0025 18.5472 12.0367 18.5707 12.0771 18.5884C12.1183 18.6053 12.1583 18.6192 12.1973 18.6303L12.4993 18.7174C12.5339 18.7269 12.5735 18.7401 12.6184 18.757C12.6639 18.7739 12.708 18.7978 12.7507 18.8287C12.7933 18.8588 12.8286 18.8992 12.8565 18.9499C12.8844 18.9999 12.8984 19.0631 12.8984 19.1395C12.8984 19.216 12.8829 19.284 12.8521 19.3435C12.8219 19.403 12.7797 19.453 12.7253 19.4934C12.6709 19.5331 12.6077 19.5632 12.5357 19.5838C12.4637 19.6051 12.3865 19.6158 12.3042 19.6158Z" fill="#778899"></path><path d="M10.3842 19.5827V17.9953H11.0115C11.0269 17.9953 11.0453 17.996 11.0666 17.9975C11.0879 17.9982 11.1085 18.0005 11.1283 18.0041C11.2143 18.0174 11.2863 18.0468 11.3444 18.0923C11.4032 18.1379 11.4473 18.1956 11.4767 18.2654C11.5061 18.3345 11.5208 18.4113 11.5208 18.4958C11.5208 18.5796 11.5057 18.6563 11.4756 18.7262C11.4462 18.7952 11.4021 18.8529 11.3433 18.8992C11.2852 18.9448 11.2136 18.9742 11.1283 18.9874C11.1085 18.9904 11.0879 18.9926 11.0666 18.994C11.0453 18.9955 11.0269 18.9962 11.0115 18.9962H10.5805V19.5827H10.3842ZM10.5805 18.8099H11.0049C11.0188 18.8099 11.0346 18.8092 11.0523 18.8077C11.0706 18.8063 11.0879 18.8037 11.1041 18.8C11.1548 18.7883 11.1959 18.767 11.2275 18.7361C11.2599 18.7045 11.2834 18.6677 11.2981 18.6259C11.3128 18.5832 11.3201 18.5399 11.3201 18.4958C11.3201 18.4517 11.3128 18.4087 11.2981 18.3668C11.2834 18.3242 11.2599 18.2871 11.2275 18.2555C11.1959 18.2239 11.1548 18.2026 11.1041 18.1915C11.0879 18.1871 11.0706 18.1845 11.0523 18.1838C11.0346 18.1823 11.0188 18.1816 11.0049 18.1816H10.5805V18.8099Z" fill="#778899"></path><path d="M9.44974 19.6158C9.32701 19.6158 9.21861 19.5904 9.12455 19.5397C9.03048 19.489 8.95662 19.4181 8.90298 19.3269C8.85006 19.2351 8.82361 19.1274 8.82361 19.004V17.9964L9.02203 17.9953V18.9874C9.02203 19.0624 9.03452 19.1278 9.05951 19.1836C9.08523 19.2388 9.11903 19.2847 9.16092 19.3214C9.20281 19.3582 9.24874 19.3857 9.29872 19.4041C9.34942 19.4217 9.39977 19.4306 9.44974 19.4306C9.50045 19.4306 9.55115 19.4214 9.60186 19.403C9.65257 19.3846 9.6985 19.3574 9.73966 19.3214C9.78154 19.2847 9.81498 19.2384 9.83997 19.1825C9.86496 19.1267 9.87745 19.0616 9.87745 18.9874V17.9953H10.0759V19.004C10.0759 19.1267 10.049 19.234 9.9954 19.3258C9.94249 19.4177 9.869 19.489 9.77493 19.5397C9.68086 19.5904 9.57247 19.6158 9.44974 19.6158Z" fill="#778899"></path></svg>