<svg width="22" height="22" viewBox="0 0 22 22" fill="none" xmlns="http://www.w3.org/2000/svg">
  <!-- Outer document border -->
  <path fill-rule="evenodd" clip-rule="evenodd" d="M3.52632 1.52632V20.4737H18.3383V1.52632H3.52632ZM3.30075 1C3.13465 1 3 1.13465 3 1.30075V20.6992C3 20.8653 3.13465 21 3.30075 21H18.5639C18.73 21 18.8647 20.8653 18.8647 20.6992V1.30075C18.8647 1.13465 18.73 1 18.5639 1H3.30075Z" fill="#778899"/>

  <!-- Inner document area -->
  <path d="M4.95489 18.594V3.40601H16.9098V6.76476C16.9718 6.68811 17.0666 6.6391 17.1729 6.6391C17.2792 6.6391 17.3741 6.68811 17.4361 6.76476V3.18045C17.4361 3.01435 17.3014 2.8797 17.1353 2.8797H4.72932C4.56322 2.8797 4.42857 3.01435 4.42857 3.18045V18.8195C4.42857 18.9856 4.56322 19.1203 4.72932 19.1203H17.1353C17.3014 19.1203 17.4361 18.9856 17.4361 18.8195V15.3856C17.3741 15.4623 17.2792 15.5113 17.1729 15.5113C17.0666 15.5113 16.9718 15.4623 16.9098 15.3856V18.594H4.95489Z" fill="#778899"/>

  <!-- Middle connector -->
  <path d="M16.9098 13.5317C16.9718 13.455 17.0666 13.406 17.1729 13.406C17.2792 13.406 17.3741 13.455 17.4361 13.5317V8.6187C17.3741 8.69535 17.2792 8.74436 17.1729 8.74436C17.0666 8.74436 16.9718 8.69535 16.9098 8.6187V13.5317Z" fill="#778899"/>

  <!-- Warning triangle outline -->
  <path fill-rule="evenodd" clip-rule="evenodd" d="M11.1954 4.00747L14.7292 11.0375C14.8294 11.213 14.9096 11.5639 14.4284 11.5639H7.43595C7.26052 11.5764 6.96227 11.4962 7.1728 11.0751L10.7068 4.00747C10.7819 3.90722 10.9847 3.76687 11.1954 4.00747ZM7.81203 11L10.9323 4.83459L14.0526 11H7.81203Z" fill="#778899"/>

  <!-- Lightning bolt -->
  <path d="M11.0827 7.05263L10.0677 8.81955C10.0075 9.09022 10.193 9.20802 10.2932 9.23308H11.0827C10.9699 9.42105 10.6917 9.88722 10.4812 10.2481C10.4511 10.7293 10.7945 10.6742 10.9699 10.5865C11.2205 10.1604 11.7444 9.26316 11.8346 9.08271C11.9248 8.8421 11.7469 8.70677 11.6466 8.66917H10.8195C10.9825 8.38095 11.3609 7.71428 11.5714 7.35338C11.6015 6.81203 11.2581 6.92732 11.0827 7.05263Z" fill="#778899"/>

  <!-- Text lines -->
  <path d="M6.38346 13.9323C6.38346 13.7662 6.51811 13.6316 6.68421 13.6316H10.6692C10.8353 13.6316 10.9699 13.7662 10.9699 13.9323C10.9699 14.0984 10.8353 14.2331 10.6692 14.2331H6.68421C6.51811 14.2331 6.38346 14.0984 6.38346 13.9323Z" fill="#778899"/>
  <path d="M6.38346 15.3609C6.38346 15.1948 6.51811 15.0602 6.68421 15.0602H10.6692C10.8353 15.0602 10.9699 15.1948 10.9699 15.3609C10.9699 15.527 10.8353 15.6617 10.6692 15.6617H6.68421C6.51811 15.6617 6.38346 15.527 6.38346 15.3609Z" fill="#778899"/>
  <path d="M6.38346 16.7895C6.38346 16.6234 6.51811 16.4887 6.68421 16.4887H10.6692C10.8353 16.4887 10.9699 16.6234 10.9699 16.7895C10.9699 16.9556 10.8353 17.0902 10.6692 17.0902H6.68421C6.51811 17.0902 6.38346 16.9556 6.38346 16.7895Z" fill="#778899"/>

  <!-- Checkbox 1 (top) -->
  <path fill-rule="evenodd" clip-rule="evenodd" d="M13.4135 14.609C13.6419 14.609 13.8271 14.4239 13.8271 14.1955C13.8271 13.9671 13.6419 13.782 13.4135 13.782C13.1851 13.782 13 13.9671 13 14.1955C13 14.4239 13.1851 14.609 13.4135 14.609ZM13.4135 15.1353C13.9326 15.1353 14.3534 14.7146 14.3534 14.1955C14.3534 13.6764 13.9326 13.2556 13.4135 13.2556C12.8945 13.2556 12.4737 13.6764 12.4737 14.1955C12.4737 14.7146 12.8945 15.1353 13.4135 15.1353Z" fill="#778899"/>

  <!-- Checkbox 2 (bottom) -->
  <path fill-rule="evenodd" clip-rule="evenodd" d="M13.4135 16.7895C13.6419 16.7895 13.8271 16.6043 13.8271 16.3759C13.8271 16.1476 13.6419 15.9624 13.4135 15.9624C13.1851 15.9624 13 16.1476 13 16.3759C13 16.6043 13.1851 16.7895 13.4135 16.7895ZM13.4135 17.3158C13.9326 17.3158 14.3534 16.895 14.3534 16.3759C14.3534 15.8569 13.9326 15.4361 13.4135 15.4361C12.8945 15.4361 12.4737 15.8569 12.4737 16.3759C12.4737 16.895 12.8945 17.3158 13.4135 17.3158Z" fill="#778899"/>

  <!-- Side connectors (top) -->
  <path fill-rule="evenodd" clip-rule="evenodd" d="M18.1128 6.97744V8.40601C18.1128 8.92508 17.692 9.34586 17.1729 9.34586C16.6539 9.34586 16.2331 8.92508 16.2331 8.40601V6.97744C16.2331 6.45838 16.6539 6.03759 17.1729 6.03759C17.692 6.03759 18.1128 6.45838 18.1128 6.97744ZM17.1729 6.6391C16.9861 6.6391 16.8346 6.79058 16.8346 6.97744V8.40601C16.8346 8.59288 16.9861 8.74436 17.1729 8.74436C17.3598 8.74436 17.5113 8.59288 17.5113 8.40601V6.97744C17.5113 6.79058 17.3598 6.6391 17.1729 6.6391Z" fill="#778899"/>

  <!-- Side connectors (bottom) -->
  <path fill-rule="evenodd" clip-rule="evenodd" d="M18.1128 13.7444V15.1729C18.1128 15.692 17.692 16.1128 17.1729 16.1128C16.6539 16.1128 16.2331 15.692 16.2331 15.1729V13.7444C16.2331 13.2253 16.6539 12.8045 17.1729 12.8045C17.692 12.8045 18.1128 13.2253 18.1128 13.7444ZM17.1729 13.406C16.9861 13.406 16.8346 13.5575 16.8346 13.7444V15.1729C16.8346 15.3598 16.9861 15.5113 17.1729 15.5113C17.3598 15.5113 17.5113 15.3598 17.5113 15.1729V13.7444C17.5113 13.5575 17.3598 13.406 17.1729 13.406Z" fill="#778899"/>
</svg>
